<?xml version="1.0" encoding="utf-8"?>
<!-- Generator: Adobe Illustrator 26.0.3, SVG Export Plug-In . SVG Version: 6.00 Build 0)  -->
<svg version="1.0" id="katman_1" xmlns="http://www.w3.org/2000/svg" xmlns:xlink="http://www.w3.org/1999/xlink" x="0px" y="0px"
	 viewBox="0 0 600 450" style="enable-background:new 0 0 600 450;" xml:space="preserve">
<style type="text/css">
	.st0{fill:#010202;}
</style>
<path class="st0" d="M286.1,76.7l-81.1,94.6h-27c-14.9,0-27,12.1-27,27v54.1c0,14.9,12.1,27,27,27h27l81.1,94.6V76.7z M400.8,110.7
	l-19.1,19.1c52.9,52.9,52.9,138.3,0,191.2l19.1,19.1C464.1,276.8,464.1,173.9,400.8,110.7z M362.6,148.9L343.4,168
	c31.8,31.8,31.8,82.9,0,114.7l19.1,19.1C404.7,259.7,404.7,191,362.6,148.9z M324.3,187.1l-19.1,19.1c10.7,10.7,10.7,27.6,0,38.2
	l19.1,19.1C345.3,242.6,345.3,208.1,324.3,187.1z"/>
</svg>
